<svg width="1024" height="274" xmlns="http://www.w3.org/2000/svg" xmlns:xlink="http://www.w3.org/1999/xlink"><defs><path id="a" d="M0 0h1024v274H0z"/><linearGradient x1="21.601%" y1="-1.107%" x2="-12.689%" y2="95.611%" id="c"><stop stop-color="#C401B0" offset="0%"/><stop stop-color="#7B1BED" offset="100%"/></linearGradient><linearGradient x1="60.758%" y1="7.71%" x2="46.322%" y2="87.584%" id="f"><stop stop-color="#BC1EFF" offset="0%"/><stop stop-color="#9B4AFF" offset="100%"/></linearGradient><path d="M128.594 1364.119c61.888-84.105 10.98-212.474 99.89-323.876 47.138-59.063 96.05-75.169 134.573-139.398 83.894-139.874-13.015-220.123 43.702-325.263 56.717-105.14 83.478-48.273 170.645-203.203 38.552-68.523 54.107-267.006 96.421-351.616 18.234-36.46 79.047-24.902 182.437 34.676L793.56 1559.9c-480.052 48.464-739.355 66.987-777.91 55.57-57.833-17.127 60.647-180.28 112.944-251.351z" id="e"/><filter x="-35%" y="-18.5%" width="170.1%" height="137.1%" filterUnits="objectBoundingBox" id="d"><feOffset in="SourceAlpha" result="shadowOffsetOuter1"/><feGaussianBlur stdDeviation="100" in="shadowOffsetOuter1" result="shadowBlurOuter1"/><feColorMatrix values="0 0 0 0 0 0 0 0 0 0 0 0 0 0 0 0 0 0 0.450229458 0" in="shadowBlurOuter1"/></filter><linearGradient x1="53.938%" y1="23.358%" x2="50%" y2="100%" id="i"><stop stop-color="#00C9F5" offset="0%"/><stop stop-color="#0794FF" offset="100%"/></linearGradient><path d="M192.412 1444.568c49.251-79.062 129.718-165.753 200.473-270.475 37.514-55.522 15.82-152.533 46.477-212.912 66.763-131.486 76.258-80.787 121.393-179.622 45.136-98.836 19.423-189.332 88.791-334.972 46.245-97.094 103.127-150.264 170.645-159.511L796.637 1617.88c-129.095 27.799-218.924 42.662-269.487 44.59-179.713 6.849-280.657-25.57-302.233-33.118-46.024-16.1-74.123-117.975-32.505-184.784z" id="h"/><filter x="-46.3%" y="-21.8%" width="192.6%" height="143.6%" filterUnits="objectBoundingBox" id="g"><feOffset in="SourceAlpha" result="shadowOffsetOuter1"/><feGaussianBlur stdDeviation="100" in="shadowOffsetOuter1" result="shadowBlurOuter1"/><feColorMatrix values="0 0 0 0 0 0 0 0 0 0 0 0 0 0 0 0 0 0 0.450229458 0" in="shadowBlurOuter1"/></filter><linearGradient x1="62.51%" y1="7.71%" x2="45.723%" y2="87.584%" id="l"><stop stop-color="#AC02D0" offset="0%"/><stop stop-color="#FF1278" offset="100%"/></linearGradient><path d="M175.594 1440.407c61.888-84.105 10.98-212.474 99.89-323.876 47.138-59.064 96.05-75.17 134.573-139.398 83.894-139.874 29.206-215.92 85.923-321.06 56.717-105.139 41.257-52.476 128.424-207.406 38.552-68.524 74.824-249.626 117.138-334.236C759.776 77.971 832.15 39.828 958.663 0L840.56 1636.188c-513.894 38.558-790.119 52.128-828.674 40.71-57.833-17.126 111.41-165.42 163.708-236.491z" id="k"/><filter x="-31.3%" y="-17.8%" width="162.6%" height="135.7%" filterUnits="objectBoundingBox" id="j"><feOffset in="SourceAlpha" result="shadowOffsetOuter1"/><feGaussianBlur stdDeviation="100" in="shadowOffsetOuter1" result="shadowBlurOuter1"/><feColorMatrix values="0 0 0 0 0 0 0 0 0 0 0 0 0 0 0 0 0 0 0.450229458 0" in="shadowBlurOuter1"/></filter><linearGradient x1="54.104%" y1="23.358%" x2="50%" y2="100%" id="o"><stop stop-color="#FE0012" offset="0%"/><stop stop-color="#F80A7F" offset="100%"/></linearGradient><path d="M239.412 1476.47c49.251-79.062 129.718-121.367 200.473-226.089 37.514-55.522 36.443-158.69 67.1-219.068 66.764-131.486 82.688-58.68 127.824-157.516 45.136-98.835-6.337-183.047 63.031-328.687 46.245-97.093 102.696-157.676 169.351-181.746l-23.554 1330.803c-350.464 18.381-541.038 22.205-571.72 11.472-46.024-16.1-74.123-162.36-32.505-229.17z" id="n"/><filter x="-46.3%" y="-22.3%" width="192.6%" height="144.5%" filterUnits="objectBoundingBox" id="m"><feOffset in="SourceAlpha" result="shadowOffsetOuter1"/><feGaussianBlur stdDeviation="100" in="shadowOffsetOuter1" result="shadowBlurOuter1"/><feColorMatrix values="0 0 0 0 0 0 0 0 0 0 0 0 0 0 0 0 0 0 0.450229458 0" in="shadowBlurOuter1"/></filter><linearGradient x1="54.668%" y1="23.358%" x2="50%" y2="100%" id="r"><stop stop-color="#FEAE05" offset="0%"/><stop stop-color="#FF5077" offset="100%"/></linearGradient><path d="M523.611 1492.42c27.747-59.642-3.352-138.661 45.899-241.996 49.25-103.335 86.803-78.411 120.1-156.086 33.296-77.675 35.862-165.752 70.545-247.588 23.123-54.557 66.131-83.916 129.025-88.078l-19.423 862.744c-258.537 14.446-399.122 17.451-421.757 9.016-33.951-12.652 47.864-78.368 75.611-138.011z" id="q"/><filter x="-66.8%" y="-34.2%" width="233.5%" height="168.5%" filterUnits="objectBoundingBox" id="p"><feOffset in="SourceAlpha" result="shadowOffsetOuter1"/><feGaussianBlur stdDeviation="100" in="shadowOffsetOuter1" result="shadowBlurOuter1"/><feColorMatrix values="0 0 0 0 0 0 0 0 0 0 0 0 0 0 0 0 0 0 0.450229458 0" in="shadowBlurOuter1"/></filter></defs><g fill="none" fill-rule="evenodd"><mask id="b" fill="#fff"><use xlink:href="#a"/></mask><use fill="#D8D8D8" xlink:href="#a"/><g mask="url(#b)"><path d="M112 312.205h1042v1454C665.667 1769.402 375.5 1777 283.5 1789c-92 12-149.167 4.402-171.5-22.795v-1454z" fill="url(#c)" transform="translate(-126 -322)"/><g transform="translate(224.35 -115.47)"><use fill="#000" filter="url(#d)" xlink:href="#e"/><use fill="url(#f)" xlink:href="#e"/></g><g transform="translate(224.35 -115.47)"><use fill="#000" filter="url(#g)" xlink:href="#h"/><use fill="url(#i)" xlink:href="#h"/></g><g><g transform="rotate(180 416.832 695.411)"><use fill="#000" filter="url(#j)" xlink:href="#k"/><use fill="url(#l)" xlink:href="#k"/></g><g transform="rotate(180 416.832 695.411)"><use fill="#000" filter="url(#m)" xlink:href="#n"/><use fill="url(#o)" xlink:href="#n"/></g><g transform="rotate(180 416.832 695.411)"><use fill="#000" filter="url(#p)" xlink:href="#q"/><use fill="url(#r)" xlink:href="#q"/></g></g></g></g></svg>